# xmcd
#
# Track frame offsets: 
#        150
#        24833
#        45136
#        61867
#        81899
#        103012
#        124145
#        145092
#        176082
#        206478
#
# Disc length: 3002 seconds
#
# Revision: 0
# Processed by: cddbd v1.5.2PL0 Copyright (c) Steve Scherf et al.
# Submitted via: ExactAudioCopyFreeDBPlugin 1.0
#
DISCID=7a0bb80a
DTITLE=Tindersticks - Across Six Leap Years
DYEAR=2013
DGENRE=Alternative
TTITLE0=Friday Night
TTITLE1=Marseilles Sunshine
TTITLE2=She`s Gone
TTITLE3=Dying Slowly
TTITLE4=If You're Looking For A Way Out
TTITLE5=Say Goodbye To the City
TTITLE6=Sleepy Song
TTITLE7=A Night In
TTITLE8=I Know That Loving
TTITLE9=What Are You Fighting For?
EXTD=
EXTT0=
EXTT1=
EXTT2=
EXTT3=
EXTT4=
EXTT5=
EXTT6=
EXTT7=
EXTT8=
EXTT9=
PLAYORDER=
